<svg width="149" height="40" viewBox="0 0 149 40" fill="none" xmlns="http://www.w3.org/2000/svg">
<path d="M14 33.625C12.2812 33.625 10.651 33.3021 9.10938 32.6562C7.57812 32.0208 6.26562 31.1562 5.17188 30.0625C4.07812 28.9583 3.20833 27.6406 2.5625 26.1094C1.92708 24.5781 1.60938 22.9479 1.60938 21.2188C1.60938 18.9062 2.15104 16.8021 3.23438 14.9062C4.31771 13.0104 5.80729 11.5208 7.70312 10.4375C9.59896 9.35417 11.6979 8.8125 14 8.8125C15.7292 8.8125 17.3594 9.13021 18.8906 9.76562C20.4323 10.401 21.75 11.2708 22.8438 12.375C23.9375 13.4688 24.8021 14.7865 25.4375 16.3281C26.0729 17.8594 26.3906 19.4896 26.3906 21.2188C26.3906 23.5312 25.849 25.6354 24.7656 27.5312C23.6823 29.4271 22.1927 30.9167 20.2969 32C18.401 33.0833 16.3021 33.625 14 33.625ZM14 31.4375C15.4271 31.4375 16.7708 31.1771 18.0312 30.6562C19.2917 30.125 20.3698 29.4115 21.2656 28.5156C22.1719 27.6094 22.8854 26.526 23.4062 25.2656C23.9271 23.9948 24.1875 22.6458 24.1875 21.2188C24.1875 19.3125 23.7448 17.5781 22.8594 16.0156C21.974 14.4531 20.75 13.2292 19.1875 12.3438C17.6354 11.4479 15.9062 11 14 11C12.5729 11 11.2292 11.2656 9.96875 11.7969C8.70833 12.3177 7.625 13.0312 6.71875 13.9375C5.82292 14.8333 5.11458 15.9167 4.59375 17.1875C4.07292 18.4479 3.8125 19.7917 3.8125 21.2188C3.8125 22.6458 4.07292 23.9896 4.59375 25.25C5.125 26.5104 5.83854 27.5938 6.73438 28.5C7.64062 29.4062 8.72396 30.125 9.98438 30.6562C11.2448 31.1771 12.5833 31.4375 14 31.4375ZM19.9062 19H17.7344C17.5469 18.2604 17.1354 17.6719 16.5 17.2344C15.875 16.7865 15.1302 16.5625 14.2656 16.5625C13.0573 16.5625 12.0938 16.9792 11.375 17.8125C10.6667 18.6458 10.3125 19.7708 10.3125 21.1875C10.3125 22.625 10.6667 23.7656 11.375 24.6094C12.0938 25.4531 13.0573 25.875 14.2656 25.875C15.1823 25.875 15.9427 25.6719 16.5469 25.2656C17.151 24.849 17.5469 24.2656 17.7344 23.5156H19.9062C19.7083 24.8281 19.099 25.875 18.0781 26.6562C17.0677 27.4271 15.8021 27.8125 14.2812 27.8125C12.3958 27.8125 10.8906 27.2135 9.76562 26.0156C8.65104 24.8177 8.09375 23.2083 8.09375 21.1875C8.09375 19.1875 8.65104 17.5938 9.76562 16.4062C10.8802 15.2188 12.3802 14.625 14.2656 14.625C15.7552 14.625 17.0156 15.026 18.0469 15.8281C19.0781 16.6302 19.6979 17.6875 19.9062 19Z" fill="#1F392C"/>
<path d="M43.4707 27.332C41.5566 27.332 40.0397 26.6712 38.9199 25.3496C37.8066 24.028 37.25 22.2311 37.25 19.959C37.25 17.6868 37.8066 15.89 38.9199 14.5684C40.0332 13.2402 41.5469 12.5762 43.4609 12.5762C44.9453 12.5762 46.2148 12.9993 47.2695 13.8457C48.3242 14.6921 48.9557 15.7956 49.1641 17.1562H47.377C47.1426 16.2448 46.6738 15.5254 45.9707 14.998C45.2676 14.4642 44.431 14.1973 43.4609 14.1973C42.1068 14.1973 41.0326 14.7148 40.2383 15.75C39.4505 16.7852 39.0566 18.1882 39.0566 19.959C39.0566 21.7298 39.4538 23.1328 40.248 24.168C41.0423 25.1966 42.1165 25.7109 43.4707 25.7109C44.4538 25.7109 45.2936 25.4766 45.9902 25.0078C46.6934 24.5326 47.1556 23.888 47.377 23.0742H49.1641C48.9297 24.3698 48.2949 25.4049 47.2598 26.1797C46.2311 26.9479 44.9681 27.332 43.4707 27.332ZM59.7695 25.7305C58.9036 26.7005 57.722 27.1855 56.2246 27.1855C54.7272 27.1855 53.5423 26.7005 52.6699 25.7305C51.804 24.7539 51.3711 23.4225 51.3711 21.7363C51.3711 20.0436 51.804 18.7122 52.6699 17.7422C53.5358 16.7721 54.7207 16.2871 56.2246 16.2871C57.7285 16.2871 58.9134 16.7721 59.7793 17.7422C60.6452 18.7122 61.0781 20.0436 61.0781 21.7363C61.0781 23.4225 60.6419 24.7539 59.7695 25.7305ZM53.9199 24.6465C54.4603 25.3301 55.2285 25.6719 56.2246 25.6719C57.2207 25.6719 57.9889 25.3301 58.5293 24.6465C59.0697 23.9564 59.3398 22.9863 59.3398 21.7363C59.3398 20.4863 59.0697 19.5195 58.5293 18.8359C57.9889 18.1458 57.2207 17.8008 56.2246 17.8008C55.2285 17.8008 54.4603 18.1458 53.9199 18.8359C53.3796 19.5195 53.1094 20.4863 53.1094 21.7363C53.1094 22.9863 53.3796 23.9564 53.9199 24.6465ZM68.8418 16.2871C70.1829 16.2871 71.2539 16.7819 72.0547 17.7715C72.862 18.7611 73.2656 20.0827 73.2656 21.7363C73.2656 23.3835 72.862 24.7051 72.0547 25.7012C71.2474 26.6908 70.1764 27.1855 68.8418 27.1855C68.0931 27.1855 67.429 27.0326 66.8496 26.7266C66.2702 26.4141 65.8372 25.9779 65.5508 25.418H65.3945V30.5156H63.7148V16.4727H65.3164V18.2305H65.4727C65.8112 17.625 66.2767 17.1497 66.8691 16.8047C67.4681 16.4596 68.1257 16.2871 68.8418 16.2871ZM68.4414 25.6719C69.4049 25.6719 70.1602 25.3236 70.707 24.627C71.2539 23.9303 71.5273 22.9668 71.5273 21.7363C71.5273 20.5059 71.2539 19.5423 70.707 18.8457C70.1667 18.1491 69.4147 17.8008 68.4512 17.8008C67.5007 17.8008 66.7454 18.1556 66.1855 18.8652C65.6257 19.5684 65.3457 20.5254 65.3457 21.7363C65.3457 22.9408 65.6224 23.8978 66.1758 24.6074C66.7357 25.3171 67.4909 25.6719 68.4414 25.6719ZM76.4102 30.8086C76.1432 30.8086 75.8926 30.7891 75.6582 30.75V29.3145C75.8275 29.347 76.0618 29.3633 76.3613 29.3633C76.8496 29.3633 77.237 29.2331 77.5234 28.9727C77.8164 28.7122 78.0736 28.2663 78.2949 27.6348L78.4902 27.0098L74.5938 16.4727H76.4102L79.3008 25.1348H79.457L82.3379 16.4727H84.125L80.0137 27.6445C79.5645 28.862 79.0859 29.6921 78.5781 30.1348C78.0703 30.584 77.3477 30.8086 76.4102 30.8086ZM99.6133 16.4727L96.6641 27H94.9551L92.6016 18.8555H92.4453L90.1016 27H88.4023L85.4531 16.4727H87.1523L89.2227 24.8906H89.3789L91.7324 16.4727H93.3438L95.6973 24.8906H95.8535L97.9238 16.4727H99.6133ZM101.859 27V16.4727H103.461V18.0352H103.617C103.773 17.5208 104.125 17.1009 104.672 16.7754C105.219 16.4499 105.84 16.2871 106.537 16.2871C106.856 16.2871 107.136 16.3034 107.377 16.3359V18.0156C107.149 17.9505 106.791 17.918 106.303 17.918C105.502 17.918 104.841 18.1589 104.32 18.6406C103.799 19.1224 103.539 19.7344 103.539 20.4766V27H101.859ZM109.516 27V16.4727H111.195V27H109.516ZM111.186 13.9922C110.958 14.2201 110.681 14.334 110.355 14.334C110.03 14.334 109.753 14.2201 109.525 13.9922C109.298 13.7578 109.184 13.4811 109.184 13.1621C109.184 12.8431 109.298 12.5697 109.525 12.3418C109.753 12.1074 110.03 11.9902 110.355 11.9902C110.681 11.9902 110.958 12.1074 111.186 12.3418C111.413 12.5697 111.527 12.8431 111.527 13.1621C111.527 13.4811 111.413 13.7578 111.186 13.9922ZM115.102 13.748H116.781V16.4727H119.125V17.8789H116.781V23.8359C116.781 24.4544 116.905 24.9036 117.152 25.1836C117.4 25.4635 117.797 25.6035 118.344 25.6035C118.585 25.6035 118.845 25.5905 119.125 25.5645V26.9805C118.754 27.0456 118.425 27.0781 118.139 27.0781C117.051 27.0781 116.273 26.86 115.805 26.4238C115.336 25.9876 115.102 25.2682 115.102 24.2656V17.8789H113.402V16.4727H115.102V13.748ZM121.703 27V16.4727H123.383V27H121.703ZM123.373 13.9922C123.145 14.2201 122.868 14.334 122.543 14.334C122.217 14.334 121.941 14.2201 121.713 13.9922C121.485 13.7578 121.371 13.4811 121.371 13.1621C121.371 12.8431 121.485 12.5697 121.713 12.3418C121.941 12.1074 122.217 11.9902 122.543 11.9902C122.868 11.9902 123.145 12.1074 123.373 12.3418C123.601 12.5697 123.715 12.8431 123.715 13.1621C123.715 13.4811 123.601 13.7578 123.373 13.9922ZM126.586 27V16.4727H128.188V18.1328H128.344C128.904 16.9023 129.958 16.2871 131.508 16.2871C132.686 16.2871 133.594 16.6257 134.232 17.3027C134.87 17.9733 135.189 18.9336 135.189 20.1836V27H133.51V20.5938C133.51 19.6497 133.305 18.9499 132.895 18.4941C132.491 18.0319 131.869 17.8008 131.029 17.8008C130.183 17.8008 129.509 18.0677 129.008 18.6016C128.513 19.1289 128.266 19.8516 128.266 20.7695V27H126.586ZM142.523 25.3594C143.493 25.3594 144.255 25.0208 144.809 24.3438C145.368 23.6602 145.648 22.7389 145.648 21.5801C145.648 20.4277 145.368 19.5098 144.809 18.8262C144.249 18.1426 143.487 17.8008 142.523 17.8008C141.56 17.8008 140.811 18.1393 140.277 18.8164C139.743 19.4935 139.477 20.4147 139.477 21.5801C139.477 22.7454 139.743 23.6667 140.277 24.3438C140.811 25.0208 141.56 25.3594 142.523 25.3594ZM142.602 31.043C141.345 31.043 140.326 30.7826 139.545 30.2617C138.77 29.7409 138.318 29.041 138.188 28.1621H139.965C140.056 28.5983 140.333 28.9434 140.795 29.1973C141.257 29.4512 141.859 29.5781 142.602 29.5781C143.546 29.5781 144.281 29.3568 144.809 28.9141C145.342 28.4779 145.609 27.8724 145.609 27.0977V25.0273H145.453C145.121 25.6068 144.669 26.056 144.096 26.375C143.523 26.6875 142.875 26.8438 142.152 26.8438C140.798 26.8438 139.724 26.3652 138.93 25.4082C138.135 24.4447 137.738 23.1686 137.738 21.5801C137.738 19.9915 138.139 18.7122 138.939 17.7422C139.74 16.7721 140.811 16.2871 142.152 16.2871C142.888 16.2871 143.559 16.4564 144.164 16.7949C144.77 17.127 145.225 17.5762 145.531 18.1426H145.688V16.4727H147.289V27.1855C147.289 28.3639 146.866 29.3014 146.02 29.998C145.173 30.6947 144.034 31.043 142.602 31.043Z" fill="#1F392C"/>
</svg>
