<?xml version="1.0" encoding="utf-8"?>
<!-- Generator: Adobe Illustrator 26.0.1, SVG Export Plug-In . SVG Version: 6.00 Build 0)  -->
<svg version="1.1" id="Layer_1" xmlns="http://www.w3.org/2000/svg" xmlns:xlink="http://www.w3.org/1999/xlink" x="0px" y="0px"
	 viewBox="0 0 5000 5000" style="enable-background:new 0 0 5000 5000;" xml:space="preserve">
<style type="text/css">
	.st0{fill:#FF45E6;}
</style>
<g>
	<g>
		<g>
			<path class="st0" d="M3225,2195.8H1775c-55.2,0-100-44.8-100-100v0c0-55.2,44.8-100,100-100h1450c55.2,0,100,44.8,100,100v0
				C3325,2151.1,3280.2,2195.8,3225,2195.8z"/>
		</g>
		<g>
			<path class="st0" d="M3225,2600H1775c-55.2,0-100-44.8-100-100v0c0-55.2,44.8-100,100-100h1450c55.2,0,100,44.8,100,100v0
				C3325,2555.2,3280.2,2600,3225,2600z"/>
		</g>
		<g>
			<path class="st0" d="M3225,3004.2H1775c-55.2,0-100-44.8-100-100v0c0-55.2,44.8-100,100-100h1450c55.2,0,100,44.8,100,100v0
				C3325,2959.4,3280.2,3004.2,3225,3004.2z"/>
		</g>
	</g>
	<g>
		<path class="st0" d="M2500,3886.5c-187.1,0-368.7-36.7-539.7-109c-82.2-34.8-161.4-77.8-235.5-127.8
			c-73.4-49.6-142.4-106.5-205.1-169.3c-62.7-62.7-119.7-131.7-169.3-205.1c-50.1-74.1-93.1-153.4-127.8-235.5
			c-72.3-171-109-352.6-109-539.7s36.7-368.7,109-539.7c34.8-82.2,77.8-161.4,127.8-235.5c49.6-73.4,106.5-142.4,169.3-205.1
			s131.7-119.7,205.1-169.3c74.1-50.1,153.4-93.1,235.5-127.8c171-72.3,352.6-109,539.7-109s368.7,36.7,539.7,109
			c82.2,34.8,161.4,77.8,235.5,127.8c73.4,49.6,142.4,106.5,205.1,169.3c62.7,62.7,119.7,131.7,169.3,205.1
			c50.1,74.1,93.1,153.4,127.8,235.5c72.3,171,109,352.6,109,539.7s-36.7,368.7-109,539.7c-34.8,82.2-77.8,161.4-127.8,235.5
			c-49.6,73.4-106.5,142.4-169.3,205.1c-62.7,62.7-131.7,119.7-205.1,169.3c-74.1,50.1-153.4,93.1-235.5,127.8
			C2868.7,3849.8,2687.1,3886.5,2500,3886.5z M2500,1263.5c-681.8,0-1236.5,554.7-1236.5,1236.5S1818.2,3736.5,2500,3736.5
			S3736.5,3181.8,3736.5,2500S3181.8,1263.5,2500,1263.5z"/>
	</g>
</g>
</svg>
