<svg width="173" height="32" viewBox="0 0 173 32" fill="none" xmlns="http://www.w3.org/2000/svg">
<g clip-path="url(#clip0_21_28)">
<path d="M15.624 12.8561C15.8596 12.7523 16.128 12.7522 16.3637 12.8558L30.1376 18.9105C31.5206 19.5184 31.6188 21.4431 30.305 22.1887L16.4474 30.053C16.1661 30.2127 15.8215 30.2125 15.5403 30.0526L1.71252 22.1877C0.40071 21.4416 0.498989 19.5195 1.88006 18.911L15.624 12.8561Z" fill="#FFADF2" fill-opacity="0.5"/>
<path d="M15.624 7.80623C15.8596 7.70243 16.128 7.70232 16.3637 7.80592L30.1376 13.8607C31.5206 14.4686 31.6188 16.3932 30.305 17.1388L16.4474 25.0032C16.1661 25.1629 15.8215 25.1627 15.5403 25.0028L1.71252 17.1379C0.40071 16.3918 0.498989 14.4696 1.88006 13.8612L15.624 7.80623Z" fill="#FFADF2" fill-opacity="0.8"/>
<path d="M15.624 3.67433C15.8596 3.57053 16.128 3.57042 16.3637 3.67403L30.1376 9.72876C31.5206 10.3367 31.6188 12.2613 30.305 13.0069L16.4474 20.8713C16.1661 21.031 15.8215 21.0308 15.5403 20.8709L1.71252 13.006C0.40071 12.2599 0.498989 10.3377 1.88006 9.72928L15.624 3.67433Z" fill="#FF60E6"/>
</g>
<path d="M53.3441 10.84H48.5921V25H45.7121V10.84H40.9601V8.2H53.3441V10.84ZM65.4442 25H62.5642V18.088C62.5642 17.272 62.3482 16.68 61.9162 16.312C61.5002 15.944 60.9242 15.76 60.1882 15.76C59.5162 15.76 58.9722 15.976 58.5562 16.408C58.1562 16.824 57.9562 17.264 57.9562 17.728V25H55.0762V8.2H57.9562V13.648C58.3402 13.328 58.7962 13.12 59.3242 13.024C59.8682 12.912 60.4282 12.88 61.0042 12.928C62.4602 13.104 63.5642 13.664 64.3162 14.608C65.0682 15.536 65.4442 16.696 65.4442 18.088V25ZM78.8701 20.104H70.4701C70.5341 20.824 70.8061 21.376 71.2861 21.76C71.7661 22.144 72.3581 22.368 73.0621 22.432C73.7661 22.48 74.4861 22.384 75.2221 22.144C75.9741 21.888 76.6461 21.504 77.2381 20.992L78.8221 23.176C77.9421 23.912 77.0461 24.44 76.1341 24.76C75.2381 25.064 74.3501 25.216 73.4701 25.216C71.4381 25.216 69.9101 24.648 68.8861 23.512C67.8781 22.376 67.3741 20.768 67.3741 18.688C67.3741 17.504 67.6061 16.472 68.0701 15.592C68.5501 14.712 69.2221 14.032 70.0861 13.552C70.9661 13.072 71.9981 12.84 73.1821 12.856C75.7741 12.888 77.5021 13.904 78.3661 15.904C78.6061 16.48 78.7581 17.112 78.8221 17.8C78.9021 18.488 78.9181 19.256 78.8701 20.104ZM73.4461 15.544C72.4701 15.544 71.7261 15.808 71.2141 16.336C70.7181 16.864 70.4701 17.448 70.4701 18.088H76.3981C76.3981 17.432 76.1421 16.848 75.6301 16.336C75.1341 15.808 74.4061 15.544 73.4461 15.544ZM98.1759 25.264C97.0239 25.264 95.9599 25.04 94.9839 24.592C94.0079 24.128 93.1439 23.52 92.3919 22.768C91.6399 22 91.0479 21.104 90.6159 20.08C90.1839 19.04 89.9679 17.888 89.9679 16.624C89.9679 15.392 90.1839 14.256 90.6159 13.216C91.0639 12.16 91.6559 11.24 92.3919 10.456C93.1279 9.688 93.9839 9.08 94.9599 8.632C95.9519 8.184 97.0239 7.96 98.1759 7.96C99.3919 7.96 100.552 8.24 101.656 8.8C102.76 9.344 103.784 10.192 104.728 11.344L102.4 13.264C101.744 12.448 101.064 11.864 100.36 11.512C99.6559 11.144 98.9279 10.96 98.1759 10.96C97.4559 10.96 96.7839 11.104 96.1599 11.392C95.5519 11.68 94.9999 12.08 94.5039 12.592C94.0239 13.088 93.6479 13.68 93.3759 14.368C93.1039 15.04 92.9679 15.792 92.9679 16.624C92.9679 17.456 93.1039 18.208 93.3759 18.88C93.6479 19.536 94.0239 20.12 94.5039 20.632C94.9839 21.144 95.5359 21.544 96.1599 21.832C96.7839 22.12 97.4559 22.264 98.1759 22.264C98.9279 22.264 99.6559 22.088 100.36 21.736C101.064 21.368 101.744 20.776 102.4 19.96L104.728 21.88C103.784 23.032 102.76 23.888 101.656 24.448C100.552 24.992 99.3919 25.264 98.1759 25.264ZM106.895 25V13H109.751V13.888C110.375 13.248 111.119 12.936 111.983 12.952C112.863 12.968 113.831 13.144 114.887 13.48L113.495 15.952C112.887 15.744 112.287 15.68 111.695 15.76C111.119 15.84 110.647 16.016 110.279 16.288C109.911 16.56 109.735 16.888 109.751 17.272V25H106.895ZM126.87 20.104H118.47C118.534 20.824 118.806 21.376 119.286 21.76C119.766 22.144 120.358 22.368 121.062 22.432C121.766 22.48 122.486 22.384 123.222 22.144C123.974 21.888 124.646 21.504 125.238 20.992L126.822 23.176C125.942 23.912 125.046 24.44 124.134 24.76C123.238 25.064 122.35 25.216 121.47 25.216C119.438 25.216 117.91 24.648 116.886 23.512C115.878 22.376 115.374 20.768 115.374 18.688C115.374 17.504 115.606 16.472 116.07 15.592C116.55 14.712 117.222 14.032 118.086 13.552C118.966 13.072 119.998 12.84 121.182 12.856C123.774 12.888 125.502 13.904 126.366 15.904C126.606 16.48 126.758 17.112 126.822 17.8C126.902 18.488 126.918 19.256 126.87 20.104ZM121.446 15.544C120.47 15.544 119.726 15.808 119.214 16.336C118.718 16.864 118.47 17.448 118.47 18.088H124.398C124.398 17.432 124.142 16.848 123.63 16.336C123.134 15.808 122.406 15.544 121.446 15.544ZM132.547 25.12C131.331 25.056 130.411 24.712 129.787 24.088C129.163 23.448 128.851 22.568 128.851 21.448C128.851 20.632 129.059 19.936 129.475 19.36C129.891 18.768 130.443 18.304 131.131 17.968C131.819 17.632 132.579 17.424 133.411 17.344C134.259 17.264 135.115 17.32 135.979 17.512V16.768C135.979 16.256 135.771 15.888 135.355 15.664C134.939 15.44 134.427 15.336 133.819 15.352C133.227 15.368 132.627 15.488 132.019 15.712C131.427 15.92 130.947 16.224 130.579 16.624L128.971 14.872C129.579 14.28 130.299 13.816 131.131 13.48C131.963 13.144 132.819 12.952 133.699 12.904C134.595 12.856 135.435 12.96 136.219 13.216C137.019 13.472 137.675 13.888 138.187 14.464C138.587 14.912 138.811 15.504 138.859 16.24C138.907 16.976 138.931 17.784 138.931 18.664V25H136.003V23.896C135.507 24.36 134.955 24.688 134.347 24.88C133.739 25.056 133.139 25.136 132.547 25.12ZM135.907 21.616V19.552C134.243 19.424 133.083 19.528 132.427 19.864C131.787 20.2 131.467 20.72 131.467 21.424C131.467 21.872 131.619 22.2 131.923 22.408C132.243 22.6 132.635 22.696 133.099 22.696C133.579 22.68 134.067 22.584 134.563 22.408C135.075 22.216 135.523 21.952 135.907 21.616ZM142.837 19.552V15.664H141.085V13H142.837V8.2H145.669V13H147.541V15.664H145.669V19.552C145.669 20.272 145.725 20.816 145.837 21.184C145.949 21.552 146.101 21.808 146.293 21.952C146.501 22.08 146.725 22.152 146.965 22.168C147.221 22.184 147.477 22.192 147.733 22.192H148.141V25.048H147.781C146.901 25.048 146.149 24.984 145.525 24.856C144.901 24.728 144.389 24.48 143.989 24.112C143.589 23.728 143.293 23.176 143.101 22.456C142.925 21.72 142.837 20.752 142.837 19.552ZM155.87 25.312C154.718 25.312 153.702 25.064 152.822 24.568C151.958 24.056 151.278 23.352 150.782 22.456C150.302 21.544 150.062 20.488 150.062 19.288C150.062 17.176 150.59 15.584 151.646 14.512C152.718 13.424 154.126 12.88 155.87 12.88C157.006 12.88 158.006 13.12 158.87 13.6C159.75 14.08 160.438 14.8 160.934 15.76C161.43 16.704 161.678 17.88 161.678 19.288C161.678 20.488 161.43 21.544 160.934 22.456C160.438 23.352 159.75 24.056 158.87 24.568C158.006 25.064 157.006 25.312 155.87 25.312ZM155.87 22.552C156.526 22.552 157.078 22.4 157.526 22.096C157.99 21.776 158.334 21.368 158.558 20.872C158.798 20.376 158.918 19.848 158.918 19.288C158.918 18.28 158.654 17.424 158.126 16.72C157.614 16 156.862 15.64 155.87 15.64C154.91 15.64 154.158 15.984 153.614 16.672C153.086 17.36 152.822 18.232 152.822 19.288C152.822 19.864 152.942 20.4 153.182 20.896C153.422 21.392 153.766 21.792 154.214 22.096C154.678 22.4 155.23 22.552 155.87 22.552ZM163.849 25V13H166.705V13.888C167.329 13.248 168.073 12.936 168.937 12.952C169.817 12.968 170.785 13.144 171.841 13.48L170.449 15.952C169.841 15.744 169.241 15.68 168.649 15.76C168.073 15.84 167.601 16.016 167.233 16.288C166.865 16.56 166.689 16.888 166.705 17.272V25H163.849Z" fill="#1F392C"/>
<defs>
<clipPath id="clip0_21_28">
<rect width="32.0001" height="32" fill="white"/>
</clipPath>
</defs>
</svg>
