<svg width="1512" height="468" viewBox="0 0 1512 468" fill="none" xmlns="http://www.w3.org/2000/svg">
<g clip-path="url(#clip0_51_11)">
<rect width="1512" height="468" fill="#F8F5F0"/>
<path d="M-25.541 425.647C-62.2949 345.307 -49.3218 250.837 -1.97467 177.829C43.5992 107.493 139.976 34.9641 224.139 86.789C262.72 110.565 281.036 153.24 284.14 197.064C287.944 250.875 276.11 303.972 273.701 357.545C271.685 400.836 274.243 444.806 282.848 487.302C291.33 529.611 306.808 571.803 334.728 605.243C364.993 641.423 411.207 664.178 458.824 661.302C509.321 658.24 553.876 627.268 592.338 597.05C602.495 589.058 612.392 580.916 621.846 571.94C625.645 568.36 620.64 561.429 616.198 564.523C594.585 579.757 574.674 597.245 552.728 612.056C531.715 626.251 509.074 638.467 484.472 645.279C436.361 658.609 385.455 642.382 350.782 607.237C319.789 575.718 302.876 532.813 293.191 490.387C283.31 447.501 280.556 403.071 282.389 359.096C285.989 269.261 323.431 147.81 235.223 84.9902C200.764 60.4761 156.249 57.177 117.017 71.13C73.1628 86.6873 35.693 119.787 7.73347 156.414C-43.6196 223.76 -66.2565 315.769 -38.4881 397.272C-35.1331 407.061 -31.1817 416.617 -26.4973 425.904C-26.191 426.773 -25.308 426.244 -25.541 425.647Z" fill="#FFADF2"/>
<path d="M712.348 207.487C765.068 206.927 817.879 203.067 870.597 200.804C922.716 198.507 974.935 196.215 1027.05 194.018C1041.61 193.357 1056.07 192.79 1070.62 192.228C1085.69 191.596 1100.91 191.574 1116.01 190.243C1123.27 189.56 1122.26 177.482 1115.05 177.466C1101.84 177.304 1088.55 178.439 1075.39 179.081C1062.13 179.718 1048.97 180.36 1035.71 180.996C1009.3 182.274 982.873 183.652 956.432 185.33C904.561 188.543 852.583 191.85 800.754 196.068C771.166 198.465 741.602 200.463 712.133 204.27C710.131 204.254 710.345 207.472 712.348 207.487Z" fill="#FF60E6"/>
</g>
<defs>
<clipPath id="clip0_51_11">
<rect width="1512" height="468" fill="white"/>
</clipPath>
</defs>
</svg>
